<svg xmlns="http://www.w3.org/2000/svg" width="256" height="256"><path fill="#1976D2" fill-opacity=".016" fill-rule="evenodd" d="M0 128.004v128.004l128.25-.254 128.25-.254.254-127.75L257.008 0H0zm.485.496c0 70.4.119 99.053.265 63.672s.146-92.98 0-128S.485 58.1.485 128.5"/><path fill="#1976D2" fill-opacity=".163" fill-rule="evenodd" d="M46 1.496c-16.06 3.331-26.392 9.628-34.576 21.071C5.919 30.266 3.2 36.587 1.415 45.838-.707 56.84-.629 201.338 1.504 211.5 5.961 232.729 20.497 247.889 42 253.733c5.962 1.621 13.161 1.767 87 1.767h80.5l8.078-2.739c9.854-3.342 18.529-8.804 24.183-15.227 5.338-6.064 10.738-16.762 12.25-24.268.639-3.171 1.573-6.547 2.075-7.502C257.361 203.341 257.275 49.027 256 51c-.766 1.185-.973.967-.985-1.04-.008-1.397-.7-5.222-1.537-8.5-4.81-18.84-17.524-32.113-36.978-38.604l-7-2.335L131 .334C68.456.186 51.179.422 46 1.496M.476 128.5c0 42.9.123 60.304.274 38.676.15-21.629.15-56.729 0-78C.599 67.904.476 85.6.476 128.5"/><path fill="#1976D2" fill-opacity=".395" fill-rule="evenodd" d="M51 1.059C25.78 4.408 8.757 19.057 2.263 43 .649 48.95.5 56.141.5 128c0 71.79.151 79.089 1.767 85.387C7.614 234.221 22.71 248.822 44 253.751c6.772 1.568 14.928 1.738 84 1.743 85.403.007 84.283.086 98.632-6.976 13.832-6.808 24.987-22.481 27.44-38.553.627-4.106 1.542-8.246 2.034-9.201.504-.98.851-33.254.794-74-.055-39.745-.46-71.139-.9-69.764-.668 2.085-.82 1.753-.918-2-.373-14.36-6.289-28.42-15.993-38.013-7.695-7.607-13.945-11.195-24.764-14.215C206.633.625 205.235.584 132 .392 91.025.284 54.575.584 51 1.059M.474 128.5c.001 40.15.124 56.429.276 36.176.151-20.253.151-53.103 0-73C.598 71.779.474 88.35.474 128.5"/><path fill="#1976D2" fill-opacity=".119" fill-rule="evenodd" d="M174 .635c-4.125.198-33.6.533-65.5.744s-59.35.647-61 .969c-5.548 1.083-5.996 1.206-7.25 1.989-.687.43-1.662.527-2.165.216s-1.072-.093-1.264.485c-.193.578-1.356 1.127-2.586 1.219S32 6.806 32 7.272s-.392.604-.871.308-1.898.352-3.153 1.441S25.342 11 24.911 11c-1.44 0-9.719 8.114-12.581 12.331-1.557 2.293-3.392 4.764-4.08 5.49-1.18 1.247-1.637 2.728-1.368 4.429.065.412-.359.75-.941.75s-.8.419-.484.931S5.568 36.149 5 36.5s-.793 1.026-.5 1.5.068 1.149-.5 1.5-.774 1.057-.457 1.569c.316.512.214 1.493-.227 2.181-1.969 3.066-2.22 12.424-2.291 85.25-.037 37.95.19 71.475.503 74.5.8 7.719 1.175 10.461 1.468 10.75.14.137.348.588.463 1s.733 2.017 1.375 3.565C5.475 219.863 6 221.467 6 221.878 6 225.072 19.551 243 21.965 243c.362 0 1.53.791 2.596 1.757 2.16 1.958 7.529 4.687 8.689 4.418.413-.096.75.302.75.884s.419.8.931.484 1.201-.138 1.532.397 1.216.737 1.968.448c.752-.288 1.668-.036 2.037.56s1.089.826 1.601.509 1.494-.218 2.181.219c2.749 1.745 10.194 1.926 85.25 2.068 64.835.122 71.989.012 79.5-1.231 6.861-1.136 7.503-1.261 7.75-1.51.137-.139.7-.366 1.25-.503s1.338-.36 1.75-.493c.412-.134 1.088-.191 1.5-.125.412.065.75-.332.75-.882s.338-.921.75-.825c1.16.269 6.529-2.46 8.689-4.418 1.066-.966 2.25-1.757 2.632-1.757.905 0 8.929-8.024 8.929-8.929 0-.382.787-1.566 1.75-2.632 1.809-2.004 5.401-8.93 5.844-11.267.139-.731.58-2.081.98-3 1.497-3.438 2.3-7.868 2.881-15.899.248-3.425.922-7.108 1.498-8.184.576-1.077.979-5.7.897-10.273-.129-7.105-.252-7.661-.85-3.816-.385 2.475-.767-19.211-.85-48.191-.097-34.212.201-52.908.85-53.309.55-.34.955-3.854.9-7.809-.071-5.125-.329-6.473-.9-4.691-.686 2.142-.842 1.856-1.088-2-.594-9.302-.792-11.592-1.3-15-.287-1.925-.793-4.625-1.125-6l-.844-3.5c-.131-.55-.856-2.125-1.61-3.5s-1.329-2.6-1.278-2.721c.303-.722-2.329-6.279-2.974-6.279-.43 0-.781-.675-.781-1.5s-.425-1.5-.943-1.5c-.519 0-1.678-1.237-2.575-2.75s-3.878-4.325-6.626-6.25-5.527-3.975-6.176-4.556c-1.45-1.298-4.914-2.818-5.93-2.603-.412.088-.75-.291-.75-.841s-.338-.947-.75-.882c-.412.066-1.088.009-1.5-.125-.412-.133-1.2-.355-1.75-.493s-1.113-.344-1.25-.458-1.15-.363-2.25-.553a511 511 0 0 1-5.5-.997c-7.132-1.333-25.553-2.31-35-1.857m-45 61.872c-17.74 4.324-31.275 15.161-39.61 31.712l-3.43 6.811-2.963-1.532c-4.425-2.288-11.174-2.895-16.905-1.52-9.759 2.341-19.173 13.976-20.651 25.522-.629 4.92-.727 5.038-6.098 7.399-7.492 3.293-14.663 10.012-18.029 16.893-2.297 4.693-2.788 7.019-2.787 13.202 0 8.654 2.085 13.15 7.654 16.506 3.255 1.962 5.092 2 95.819 2h92.5l5.73-2.814c6.205-3.047 10.565-7.614 14.021-14.686 3.104-6.353 3.026-17.626-.169-24.236-2.827-5.85-8.697-12.017-14.024-14.734-3.795-1.937-15.739-4.28-17.257-3.386-.385.226-.949-1.288-1.253-3.366-1.631-11.136-2.87-15.505-6.461-22.778-7.37-14.927-22.817-27.102-39.327-30.994-7.641-1.802-19.365-1.801-26.76.001M.336 71c0 4.125.177 5.813.392 3.75s.216-5.437 0-7.5C.513 65.188.336 66.875.336 71m.019 113.5c-.003 4.95.166 7.101.376 4.78.209-2.321.212-6.371.005-9-.206-2.629-.378-.73-.381 4.22"/></svg>